<svg xmlns="http://www.w3.org/2000/svg" xmlns:xlink="http://www.w3.org/1999/xlink" id="レイヤー_1" x="0" y="0" version="1.1" viewBox="0 0 151 41" xml:space="preserve" style="enable-background:new 0 0 151 41"><style type="text/css">.st0{fill:#e8884e}.st1{fill:#357f94}</style><circle cx="20.7" cy="23.85" r="12.09" class="st0"/><circle cx="12.09" cy="17.15" r="12.09" class="st1"/><g><path d="M44.29,14.64h10.12v0.9h-4.57v13.71h-1V15.53h-4.55V14.64z"/><path d="M65.68,15.51h-7.27v5.39h6.88v0.84h-6.88v6.64h7.27v0.86h-8.26V14.64h8.26V15.51z"/><path d="M74.19,28.58c1.15,0,2.29-0.23,3.44-0.68v0.96c-1.11,0.39-2.27,0.59-3.5,0.59c-1.81,0-3.27-0.65-4.38-1.96 c-1.11-1.31-1.66-3.15-1.66-5.54c0-2.36,0.53-4.2,1.59-5.52c1.06-1.32,2.5-1.98,4.33-1.98c1.24,0,2.41,0.2,3.52,0.61v0.92 c-1.16-0.44-2.31-0.66-3.46-0.66c-1.55,0-2.76,0.59-3.64,1.76s-1.32,2.8-1.32,4.88c0,2.07,0.46,3.69,1.38,4.87 S72.64,28.58,74.19,28.58z"/><path d="M82.05,14.64v6.27h7.7v-6.27h1v14.61h-1v-7.5h-7.7v7.5h-1V14.64H82.05z"/><path d="M109.45,28.58c1.15,0,2.29-0.23,3.44-0.68v0.96c-1.11,0.39-2.27,0.59-3.5,0.59c-1.81,0-3.27-0.65-4.38-1.96 s-1.66-3.15-1.66-5.54c0-2.36,0.53-4.2,1.59-5.52c1.06-1.32,2.5-1.98,4.33-1.98c1.24,0,2.41,0.2,3.52,0.61v0.92 c-1.16-0.44-2.31-0.66-3.46-0.66c-1.55,0-2.76,0.59-3.64,1.76s-1.32,2.8-1.32,4.88c0,2.07,0.46,3.69,1.38,4.87 S107.9,28.58,109.45,28.58z"/><path d="M117.32,14.64v13.73h7.44v0.88h-8.46V14.64H117.32z"/><path d="M128.61,14.64v9.75c0,2.79,1.32,4.18,3.95,4.18c2.62,0,3.93-1.39,3.93-4.18v-9.75h1v9.71c0,1.68-0.43,2.95-1.28,3.81 s-2.07,1.29-3.66,1.29s-2.81-0.43-3.66-1.29s-1.28-2.13-1.28-3.81v-9.71H128.61z"/><path d="M149.19,18.01c0,0.81-0.26,1.49-0.78,2.05c-0.52,0.56-1.25,0.94-2.19,1.15v0.04c2.47,0.4,3.71,1.63,3.71,3.69 c0,1.45-0.5,2.52-1.48,3.23s-2.51,1.06-4.57,1.06h-3.09V14.64h2.89c1.89,0,3.28,0.28,4.17,0.83 C148.75,16.02,149.19,16.87,149.19,18.01z M141.79,20.9h1.89c3.05,0,4.57-0.93,4.57-2.79c0-0.36-0.06-0.69-0.17-0.97 c-0.11-0.28-0.32-0.55-0.62-0.82c-0.3-0.27-0.76-0.47-1.39-0.61s-1.39-0.21-2.29-0.21h-2.01V20.9z M141.79,21.75v6.64H144 c1.69,0,2.94-0.28,3.75-0.85s1.21-1.45,1.21-2.65c0-1.07-0.42-1.86-1.27-2.37s-2.18-0.77-4-0.77H141.79z"/></g></svg>